<svg width="343" height="63" viewBox="0 0 343 63" fill="none" xmlns="http://www.w3.org/2000/svg">
<path fill-rule="evenodd" clip-rule="evenodd" d="M0 0H343V63H0V0ZM46.44 25.88C46.2267 26.0933 45.9733 26.2 45.68 26.2H38.44V37.8H45.68C45.9733 37.8 46.2267 37.9067 46.44 38.12C46.6533 38.3333 46.76 38.5867 46.76 38.88V44.92C46.76 45.2133 46.6533 45.4667 46.44 45.68C46.2267 45.8933 45.9733 46 45.68 46H20.32C20.0267 46 19.7733 45.8933 19.56 45.68C19.3467 45.4667 19.24 45.2133 19.24 44.92V38.88C19.24 38.5867 19.3467 38.3333 19.56 38.12C19.7733 37.9067 20.0267 37.8 20.32 37.8H27.64V26.2H20.32C20.0267 26.2 19.7733 26.0933 19.56 25.88C19.3467 25.6667 19.24 25.4133 19.24 25.12V19.08C19.24 18.7867 19.3467 18.5333 19.56 18.32C19.7733 18.1067 20.0267 18 20.32 18H45.68C45.9733 18 46.2267 18.1067 46.44 18.32C46.6533 18.5333 46.76 18.7867 46.76 19.08V25.12C46.76 25.4133 46.6533 25.6667 46.44 25.88ZM79.5044 18C79.7977 18 80.051 18.1067 80.2644 18.32C80.4777 18.5333 80.5844 18.7867 80.5844 19.08V44.92C80.5844 45.2133 80.4777 45.4667 80.2644 45.68C80.051 45.8933 79.7977 46 79.5044 46H73.0644C72.4244 46 71.8911 45.72 71.4644 45.16L62.7444 34.04V44.92C62.7444 45.2133 62.6377 45.4667 62.4244 45.68C62.2111 45.8933 61.9577 46 61.6644 46H54.2244C53.931 46 53.6777 45.8933 53.4644 45.68C53.251 45.4667 53.1443 45.2133 53.1443 44.92V19.08C53.1443 18.7867 53.251 18.5333 53.4644 18.32C53.6777 18.1067 53.931 18 54.2244 18H60.7043C61.3444 18 61.8644 18.2667 62.2644 18.8L70.9844 30.84V19.08C70.9844 18.7867 71.0911 18.5333 71.3044 18.32C71.5177 18.1067 71.7711 18 72.0644 18H79.5044ZM105.049 18C107.555 18 109.742 18.4267 111.609 19.28C113.475 20.1333 114.902 21.2933 115.889 22.76C116.875 24.2267 117.369 25.8667 117.369 27.68C117.369 30.6667 116.435 33.0133 114.569 34.72C112.702 36.4 109.529 37.24 105.049 37.24H99.7687V44.92C99.7687 45.2133 99.6621 45.4667 99.4487 45.68C99.2354 45.8933 98.9821 46 98.6887 46H90.0887C89.7954 46 89.5421 45.8933 89.3287 45.68C89.1154 45.4667 89.0087 45.2133 89.0087 44.92V19.08C89.0087 18.7867 89.1154 18.5333 89.3287 18.32C89.5421 18.1067 89.7954 18 90.0887 18H105.049ZM104.889 29.84C105.529 29.84 106.035 29.6533 106.409 29.28C106.782 28.88 106.969 28.36 106.969 27.72C106.969 27.0533 106.782 26.5067 106.409 26.08C106.035 25.6533 105.529 25.44 104.889 25.44H99.8088V29.84H104.889ZM129.193 44.64C128.846 45.5467 128.246 46 127.393 46H119.833C119.593 46 119.38 45.92 119.193 45.76C119.033 45.5733 118.953 45.36 118.953 45.12L118.993 44.88L127.713 19.32C127.82 18.9733 128.02 18.6667 128.313 18.4C128.606 18.1333 129.006 18 129.513 18H140.633C141.14 18 141.54 18.1333 141.833 18.4C142.126 18.6667 142.326 18.9733 142.433 19.32L151.153 44.88L151.193 45.12C151.193 45.36 151.1 45.5733 150.913 45.76C150.753 45.92 150.553 46 150.313 46H142.753C141.9 46 141.3 45.5467 140.953 44.64L139.953 41.84H130.193L129.193 44.64ZM135.073 25.72L132.233 34.04H137.913L135.073 25.72ZM165.258 35.2C165.258 36.2933 165.617 37.1334 166.338 37.72C167.084 38.3066 168.084 38.6 169.338 38.6C170.458 38.6 171.284 38.4133 171.818 38.04C172.351 37.6667 172.804 37.1067 173.177 36.36C173.524 35.6667 173.991 35.32 174.578 35.32H183.218C183.458 35.32 183.657 35.4133 183.818 35.6C184.004 35.76 184.097 35.96 184.097 36.2C184.097 37.8267 183.551 39.4266 182.458 41C181.364 42.5467 179.698 43.84 177.458 44.88C175.244 45.8933 172.537 46.4 169.338 46.4C166.484 46.4 163.938 45.9733 161.698 45.12C159.484 44.24 157.724 42.9067 156.417 41.12C155.111 39.3066 154.458 37.0533 154.458 34.36V29.64C154.458 26.9467 155.111 24.7067 156.417 22.92C157.724 21.1067 159.484 19.7733 161.698 18.92C163.938 18.04 166.484 17.6 169.338 17.6C172.537 17.6 175.244 18.12 177.458 19.16C179.698 20.1733 181.364 21.4667 182.458 23.04C183.551 24.5867 184.097 26.1733 184.097 27.8C184.097 28.04 184.004 28.2533 183.818 28.44C183.657 28.6 183.458 28.68 183.218 28.68H174.578C173.991 28.68 173.524 28.3333 173.177 27.64C172.804 26.8933 172.351 26.3333 171.818 25.96C171.284 25.5867 170.458 25.4 169.338 25.4C168.084 25.4 167.084 25.6933 166.338 26.28C165.617 26.8667 165.258 27.7067 165.258 28.8V35.2ZM216.722 18C217.015 18 217.269 18.1067 217.482 18.32C217.695 18.5333 217.802 18.7867 217.802 19.08V25.52C217.802 25.8133 217.695 26.0667 217.482 26.28C217.269 26.4933 217.015 26.6 216.722 26.6H208.122V44.92C208.122 45.2133 208.015 45.4667 207.802 45.68C207.589 45.8933 207.335 46 207.042 46H198.802C198.509 46 198.255 45.8933 198.042 45.68C197.829 45.4667 197.722 45.2133 197.722 44.92V26.6H189.122C188.829 26.6 188.575 26.4933 188.362 26.28C188.149 26.0667 188.042 25.8133 188.042 25.52V19.08C188.042 18.7867 188.149 18.5333 188.362 18.32C188.575 18.1067 188.829 18 189.122 18H216.722ZM250.346 25.88C250.133 26.0933 249.88 26.2 249.586 26.2H242.346V37.8H249.586C249.88 37.8 250.133 37.9067 250.346 38.12C250.56 38.3333 250.666 38.5867 250.666 38.88V44.92C250.666 45.2133 250.56 45.4667 250.346 45.68C250.133 45.8933 249.88 46 249.586 46H224.226C223.933 46 223.68 45.8933 223.466 45.68C223.253 45.4667 223.146 45.2133 223.146 44.92V38.88C223.146 38.5867 223.253 38.3333 223.466 38.12C223.68 37.9067 223.933 37.8 224.226 37.8H231.546V26.2H224.226C223.933 26.2 223.68 26.0933 223.466 25.88C223.253 25.6667 223.146 25.4133 223.146 25.12V19.08C223.146 18.7867 223.253 18.5333 223.466 18.32C223.68 18.1067 223.933 18 224.226 18H249.586C249.88 18 250.133 18.1067 250.346 18.32C250.56 18.5333 250.666 18.7867 250.666 19.08V25.12C250.666 25.4133 250.56 25.6667 250.346 25.88ZM285.731 18C285.971 18 286.171 18.0933 286.331 18.28C286.517 18.44 286.611 18.64 286.611 18.88L286.571 19.16L277.371 44.68C277.237 45.0533 277.024 45.3734 276.731 45.64C276.437 45.88 276.051 46 275.571 46H266.251C265.771 46 265.384 45.88 265.091 45.64C264.797 45.3734 264.597 45.0933 264.491 44.8L255.211 19.16L255.171 18.88C255.171 18.64 255.251 18.44 255.411 18.28C255.597 18.0933 255.811 18 256.051 18H264.491C264.971 18 265.357 18.1467 265.651 18.44C265.971 18.7067 266.184 19 266.291 19.32L270.891 34.64L275.491 19.32C275.597 18.9733 275.797 18.6667 276.091 18.4C276.384 18.1333 276.784 18 277.291 18H285.731ZM317.835 38.2C318.128 38.2 318.382 38.3066 318.595 38.52C318.808 38.7333 318.915 38.9867 318.915 39.28V44.92C318.915 45.2133 318.808 45.4667 318.595 45.68C318.382 45.8933 318.128 46 317.835 46H292.555C292.262 46 292.008 45.8933 291.795 45.68C291.582 45.4667 291.475 45.2133 291.475 44.92V19.08C291.475 18.7867 291.582 18.5333 291.795 18.32C292.008 18.1067 292.262 18 292.555 18H317.435C317.728 18 317.982 18.1067 318.195 18.32C318.408 18.5333 318.515 18.7867 318.515 19.08V24.72C318.515 25.0133 318.408 25.2667 318.195 25.48C317.982 25.6933 317.728 25.8 317.435 25.8H301.875V28.32H315.235C315.528 28.32 315.782 28.4267 315.995 28.64C316.208 28.8533 316.315 29.1067 316.315 29.4V34.6C316.315 34.8933 316.208 35.1467 315.995 35.36C315.782 35.5733 315.528 35.68 315.235 35.68H301.875V38.2H317.835Z" fill="#F56A6A"/>
</svg>
